<svg width="29" height="29" viewBox="0 0 29 29" fill="none" xmlns="http://www.w3.org/2000/svg">
<path d="M20.5417 21.7501C20.5417 21.1091 20.2871 20.4945 19.8338 20.0412C19.3806 19.588 18.7659 19.3334 18.125 19.3334H10.875C10.2341 19.3334 9.61937 19.588 9.16616 20.0412C8.71295 20.4945 8.45833 21.1091 8.45833 21.7501M9.66667 2.41675V4.83341M19.3333 2.41675V4.83341M6.04167 4.83341H22.9583C24.293 4.83341 25.375 5.91539 25.375 7.25008V24.1667C25.375 25.5014 24.293 26.5834 22.9583 26.5834H6.04167C4.70698 26.5834 3.625 25.5014 3.625 24.1667V7.25008C3.625 5.91539 4.70698 4.83341 6.04167 4.83341ZM16.9167 12.0834C16.9167 13.4181 15.8347 14.5001 14.5 14.5001C13.1653 14.5001 12.0833 13.4181 12.0833 12.0834C12.0833 10.7487 13.1653 9.66675 14.5 9.66675C15.8347 9.66675 16.9167 10.7487 16.9167 12.0834Z" stroke="white" stroke-width="2" stroke-linecap="round" stroke-linejoin="round"/>
</svg>
