<svg width="29" height="29" viewBox="0 0 29 29" fill="none" xmlns="http://www.w3.org/2000/svg">
<path d="M14.5 9.66671V25.375M14.5 9.66671C14.0629 7.86557 13.3103 6.32574 12.3404 5.24803C11.3704 4.17031 10.2282 3.60473 9.0625 3.62504C8.26133 3.62504 7.49296 3.94331 6.92645 4.50982C6.35993 5.07634 6.04167 5.8447 6.04167 6.64587C6.04167 7.44705 6.35993 8.21541 6.92645 8.78193C7.49296 9.34844 8.26133 9.66671 9.0625 9.66671M14.5 9.66671C14.9371 7.86557 15.6897 6.32574 16.6596 5.24803C17.6296 4.17031 18.7718 3.60473 19.9375 3.62504C20.7387 3.62504 21.507 3.94331 22.0736 4.50982C22.6401 5.07634 22.9583 5.8447 22.9583 6.64587C22.9583 7.44705 22.6401 8.21541 22.0736 8.78193C21.507 9.34844 20.7387 9.66671 19.9375 9.66671M22.9583 14.5V22.9584C22.9583 23.5993 22.7037 24.214 22.2505 24.6672C21.7973 25.1204 21.1826 25.375 20.5417 25.375H8.45833C7.81739 25.375 7.2027 25.1204 6.74949 24.6672C6.29628 24.214 6.04167 23.5993 6.04167 22.9584V14.5M4.83333 9.66671H24.1667C24.834 9.66671 25.375 10.2077 25.375 10.875V13.2917C25.375 13.9591 24.834 14.5 24.1667 14.5H4.83333C4.16599 14.5 3.625 13.9591 3.625 13.2917V10.875C3.625 10.2077 4.16599 9.66671 4.83333 9.66671Z" stroke="white" stroke-width="2" stroke-linecap="round" stroke-linejoin="round"/>
</svg>
