<svg width="29" height="29" viewBox="0 0 29 29" fill="none" xmlns="http://www.w3.org/2000/svg">
<path d="M14.4993 3.62508V2.41675M6.04102 12.0834C6.37995 10.0854 7.41524 8.27185 8.96344 6.96416C10.5116 5.65647 12.4728 4.93906 14.4993 4.93906C16.5259 4.93906 18.4871 5.65647 20.0353 6.96416C21.5835 8.27185 22.6188 10.0854 22.9577 12.0834M4.83268 12.0834H24.166M2.41602 16.9167H16.916C17.557 16.9167 18.1716 17.1714 18.6249 17.6246C19.0781 18.0778 19.3327 18.6925 19.3327 19.3334C19.3327 19.9744 19.0781 20.589 18.6249 21.0423C18.1716 21.4955 17.557 21.7501 16.916 21.7501H14.4993M18.6077 21.0251L22.4744 17.6417C22.939 17.1931 23.5629 16.9474 24.2087 16.9587C24.8546 16.9701 25.4694 17.2375 25.9181 17.7022C26.3668 18.1668 26.6124 18.7907 26.6011 19.4366C26.5898 20.0824 26.3224 20.6973 25.8577 21.1459L21.5077 25.1334C20.6618 26.1001 19.4535 26.5834 18.1243 26.5834H13.291C11.9618 26.5834 10.7535 26.1001 9.90768 25.1334L6.04102 21.7501M6.04102 16.9167V25.3751H2.41602" stroke="white" stroke-width="2" stroke-linecap="round" stroke-linejoin="round"/>
</svg>
