<svg width="29" height="29" viewBox="0 0 29 29" fill="none" xmlns="http://www.w3.org/2000/svg">
<path d="M21.7493 26.5834H4.83268C4.19174 26.5834 3.57705 26.3288 3.12384 25.8756C2.67063 25.4224 2.41602 24.8077 2.41602 24.1667V7.25008M26.5827 15.7084L25.0167 14.1424C24.4706 13.5964 23.7299 13.2896 22.9577 13.2896C22.1854 13.2896 21.4448 13.5964 20.8987 14.1424L13.291 21.7501M16.916 9.66675C16.916 11.0014 15.834 12.0834 14.4993 12.0834C13.1647 12.0834 12.0827 11.0014 12.0827 9.66675C12.0827 8.33206 13.1647 7.25008 14.4993 7.25008C15.834 7.25008 16.916 8.33206 16.916 9.66675ZM9.66602 2.41675H24.166C25.5007 2.41675 26.5827 3.49873 26.5827 4.83341V19.3334C26.5827 20.6681 25.5007 21.7501 24.166 21.7501H9.66602C8.33133 21.7501 7.24935 20.6681 7.24935 19.3334V4.83341C7.24935 3.49873 8.33133 2.41675 9.66602 2.41675Z" stroke="white" stroke-width="2" stroke-linecap="round" stroke-linejoin="round"/>
</svg>
