<svg width="29" height="29" viewBox="0 0 29 29" fill="none" xmlns="http://www.w3.org/2000/svg">
<path d="M10.675 16.9167H6.04102C5.79516 16.9301 5.55926 17.0183 5.36491 17.1695C5.17055 17.3207 5.02702 17.5276 4.95352 17.7626L2.53685 25.0126C2.41602 25.1334 2.41602 25.2542 2.41602 25.3751C2.41602 26.1001 2.89935 26.5834 3.62435 26.5834H25.3743C26.0993 26.5834 26.5827 26.1001 26.5827 25.3751C26.5827 25.2542 26.5827 25.1334 26.4618 25.0126L24.0452 17.7626C23.9717 17.5276 23.8281 17.3207 23.6338 17.1695C23.4394 17.0183 23.2035 16.9301 22.9577 16.9167H18.3237M21.7493 9.66675C21.7493 15.1042 14.4993 20.5417 14.4993 20.5417C14.4993 20.5417 7.24935 15.1042 7.24935 9.66675C7.24935 7.74393 8.01319 5.89986 9.37282 4.54022C10.7325 3.18059 12.5765 2.41675 14.4993 2.41675C16.4222 2.41675 18.2662 3.18059 19.6259 4.54022C20.9855 5.89986 21.7493 7.74393 21.7493 9.66675ZM16.916 9.66675C16.916 11.0014 15.834 12.0834 14.4993 12.0834C13.1647 12.0834 12.0827 11.0014 12.0827 9.66675C12.0827 8.33206 13.1647 7.25008 14.4993 7.25008C15.834 7.25008 16.916 8.33206 16.916 9.66675Z" stroke="white" stroke-width="2" stroke-linecap="round" stroke-linejoin="round"/>
</svg>
