<svg width="29" height="29" viewBox="0 0 29 29" fill="none" xmlns="http://www.w3.org/2000/svg">
<path d="M16.191 2.41668H7.24935C6.60841 2.41668 5.99372 2.6713 5.54051 3.12451C5.08729 3.57772 4.83268 4.19241 4.83268 4.83335V24.1667C4.83268 24.8076 5.08729 25.4223 5.54051 25.8755C5.99372 26.3287 6.60841 26.5834 7.24935 26.5834H21.7493C22.3903 26.5834 23.005 26.3287 23.4582 25.8755C23.9114 25.4223 24.166 24.8076 24.166 24.1667V15.225M2.41602 7.25002H7.24935M2.41602 12.0834H7.24935M2.41602 16.9167H7.24935M2.41602 21.75H7.24935M25.8311 6.7981C26.3124 6.31675 26.5829 5.66391 26.5829 4.98318C26.5829 4.30246 26.3124 3.64961 25.8311 3.16827C25.3498 2.68692 24.6969 2.4165 24.0162 2.4165C23.3355 2.4165 22.6826 2.68692 22.2013 3.16827L16.1475 9.22443C15.8602 9.51156 15.6499 9.86646 15.5361 10.2564L14.5247 13.7243C14.4944 13.8282 14.4926 13.9385 14.5195 14.0434C14.5463 14.1483 14.6009 14.2441 14.6775 14.3206C14.7541 14.3972 14.8499 14.4518 14.9548 14.4787C15.0597 14.5056 15.1699 14.5038 15.2739 14.4734L18.7418 13.4621C19.1317 13.3482 19.4866 13.1379 19.7737 12.8506L25.8311 6.7981Z" stroke="white" stroke-width="2" stroke-linecap="round" stroke-linejoin="round"/>
</svg>
