<svg width="102" height="91" viewBox="0 0 102 91" fill="none" xmlns="http://www.w3.org/2000/svg">
<g clip-path="url(#clip0_858_550)">
<path d="M98.6994 19.7578H76.5532C75.6713 19.7578 74.9561 20.3957 74.9561 21.1827V22.7025C74.9561 23.593 74.144 24.3174 73.146 24.3174C72.1479 24.3174 71.3359 23.593 71.3359 22.7025V21.1827C71.3359 20.3959 70.6209 19.7578 69.7387 19.7578H3.30066C1.48059 19.7578 0 21.0787 0 22.7025V68.2974C0 69.9212 1.48059 71.2421 3.30066 71.2421H69.7391C70.6211 71.2421 71.3363 70.6042 71.3363 69.8172V68.2974C71.3363 67.407 72.1483 66.6825 73.1464 66.6825C74.1444 66.6825 74.9565 67.407 74.9565 68.2974V69.8172C74.9565 70.6041 75.6715 71.2421 76.5536 71.2421H98.6997C100.52 71.2421 102 69.9212 102 68.2974V22.7025C102 21.0787 100.519 19.7578 98.6994 19.7578ZM98.8059 44.0751H52.7035C51.8216 44.0751 51.1064 44.713 51.1064 45.5C51.1064 46.2868 51.8214 46.9249 52.7035 46.9249H98.8057V68.2974C98.8057 68.3499 98.7581 68.3923 98.6994 68.3923H78.1503V68.2974C78.1503 66.3338 76.7215 64.6635 74.7433 64.0674V60.6982C74.7433 59.9114 74.0283 59.2733 73.1462 59.2733C72.2642 59.2733 71.549 59.9112 71.549 60.6982V64.0674C69.5708 64.6635 68.142 66.3338 68.142 68.2974V68.3923H38.9688V59.1784C38.9688 58.3916 38.2538 57.7535 37.3716 57.7535C36.4895 57.7535 35.7745 58.3914 35.7745 59.1784V68.3923H3.30066C3.24189 68.3923 3.19427 68.3499 3.19427 68.2974V46.9249H22.0398C22.9217 46.9249 23.6369 46.287 23.6369 45.5C23.6369 44.7131 22.9219 44.0751 22.0398 44.0751H3.19407V22.7025C3.19407 22.6501 3.24169 22.6076 3.30046 22.6076H35.7743V31.8215C35.7743 32.6084 36.4893 33.2464 37.3714 33.2464C38.2536 33.2464 38.9686 32.6085 38.9686 31.8215V22.6076H68.1418V22.7025C68.1418 24.6661 69.5706 26.3365 71.5488 26.9326V30.3017C71.5488 31.0886 72.2638 31.7266 73.146 31.7266C74.0279 31.7266 74.7431 31.0887 74.7431 30.3017V26.9326C76.7213 26.3365 78.1501 24.6661 78.1501 22.7025V22.6076H98.6992C98.7579 22.6076 98.8055 22.6501 98.8055 22.7025V44.0751H98.8059Z" fill="white"/>
<path d="M73.146 34.9561C72.264 34.9561 71.5488 35.5939 71.5488 36.381V39.4206C71.5488 40.2074 72.2638 40.8455 73.146 40.8455C74.0279 40.8455 74.7431 40.2076 74.7431 39.4206V36.381C74.7431 35.5941 74.0279 34.9561 73.146 34.9561Z" fill="white"/>
<path d="M73.146 50.1545C72.264 50.1545 71.5488 50.7924 71.5488 51.5794V54.6191C71.5488 55.4059 72.2638 56.044 73.146 56.044C74.0279 56.044 74.7431 55.4061 74.7431 54.6191V51.5794C74.7431 50.7924 74.0279 50.1545 73.146 50.1545Z" fill="white"/>
<path d="M53.7213 50.2562C51.4193 48.2025 46.8975 46.5666 43.2444 45.5C46.8975 44.4334 51.4191 42.7976 53.7211 40.7437C55.1927 39.4308 56.0031 37.685 56.0031 35.8281C56.0031 33.9715 55.1927 32.2258 53.7211 30.9125C52.2495 29.5992 50.2929 28.8767 48.2117 28.8767C46.1305 28.8767 44.1737 29.5997 42.7019 30.9127C40.3999 32.9664 38.5663 37.0006 37.3706 40.2595C36.1749 37.0004 34.3415 32.9664 32.0393 30.9127C30.5677 29.5997 28.611 28.8767 26.5295 28.8767C24.4485 28.8767 22.4918 29.5997 21.0199 30.9127C19.5481 32.2256 18.7383 33.9713 18.7383 35.8283C18.7383 37.685 19.5487 39.4308 21.0203 40.7439C23.3223 42.7976 27.8442 44.4334 31.497 45.5002C27.844 46.5668 23.3223 48.2027 21.0203 50.2566C19.5487 51.5691 18.7383 53.3148 18.7383 55.1716C18.7383 57.0282 19.5487 58.7739 21.0203 60.0872C22.492 61.4003 24.4487 62.1232 26.5301 62.1232C28.6114 62.1232 30.5681 61.4001 32.0399 60.0872C34.3419 58.0335 36.1755 53.9993 37.3712 50.7403C38.5669 53.9995 40.4003 58.0335 42.7025 60.0872C44.1741 61.4001 46.1309 62.1232 48.2121 62.1232C50.2931 62.1232 52.2499 61.4001 53.7219 60.0872C55.1937 58.7743 56.0035 57.0286 56.0035 55.1716C56.0035 53.3146 55.1929 51.5691 53.7213 50.2562ZM23.2789 38.7291C22.4107 37.9541 21.9324 36.924 21.9324 35.8284C21.9324 34.7329 22.4107 33.7027 23.2791 32.928C24.1475 32.1532 25.3019 31.7265 26.5301 31.7265C27.7583 31.7265 28.9128 32.1532 29.7812 32.928C32.0664 34.9668 34.061 40.1001 35.1449 43.5149C31.3187 42.5487 25.5673 40.7705 23.2789 38.7291ZM29.781 58.0721C28.9126 58.8468 27.7581 59.2736 26.5299 59.2736C25.3017 59.2736 24.1473 58.8468 23.2789 58.0721C22.4105 57.2973 21.9322 56.2673 21.9322 55.1716C21.9322 54.0759 22.4105 53.0459 23.2789 52.2712C25.5641 50.2324 31.318 48.4529 35.1455 47.4859C34.0624 50.8992 32.0694 56.0306 29.781 58.0721ZM44.9605 32.928C45.8288 32.1532 46.9835 31.7265 48.2115 31.7265C49.4395 31.7265 50.5942 32.1532 51.4626 32.928C52.3309 33.7027 52.8093 34.7327 52.8093 35.8284C52.8093 36.9242 52.3309 37.9541 51.4626 38.7289C49.1773 40.7677 43.4235 42.5471 39.5959 43.5142C40.679 40.1008 42.6722 34.9694 44.9605 32.928ZM51.4626 58.0721C50.5942 58.8468 49.4397 59.2736 48.2115 59.2736C46.9833 59.2736 45.8288 58.8468 44.9605 58.0721C42.6752 56.0333 40.6806 50.9 39.5967 47.4851C43.4229 48.4513 49.1743 50.2295 51.4627 52.2712C52.3311 53.0459 52.8095 54.0759 52.8095 55.1716C52.8095 56.2673 52.3309 57.2973 51.4626 58.0721Z" fill="white"/>
</g>
<defs>
<clipPath id="clip0_858_550">
<rect width="102" height="91" fill="white"/>
</clipPath>
</defs>
</svg>
