<?xml version="1.0" standalone="no"?>
<!DOCTYPE svg PUBLIC "-//W3C//DTD SVG 20010904//EN"
 "http://www.w3.org/TR/2001/REC-SVG-20010904/DTD/svg10.dtd">
<svg version="1.0" xmlns="http://www.w3.org/2000/svg"
 width="1527.000000pt" height="1565.000000pt" viewBox="0 0 1527.000000 1565.000000"
 preserveAspectRatio="xMidYMid meet">

<g transform="translate(0.000000,1565.000000) scale(0.100000,-0.100000)"
fill="#000000" stroke="none">
<path d="M8570 15438 l5 -203 25 -3 c14 -2 115 -21 225 -43 1013 -201 1996
-619 2841 -1209 1210 -845 2147 -2030 2681 -3389 454 -1155 611 -2381 462
-3611 -227 -1892 -1193 -3643 -2681 -4863 -863 -707 -1884 -1217 -2975 -1486
-1461 -360 -2981 -277 -4401 241 -1135 413 -2150 1093 -2974 1990 -56 62 -106
113 -110 113 -10 0 -298 -249 -298 -258 0 -14 181 -209 360 -387 1213 -1212
2803 -2003 4500 -2239 1222 -170 2435 -64 3595 316 1054 344 2003 892 2844
1642 145 129 494 480 622 626 1510 1718 2196 3936 1913 6185 -167 1331 -691
2623 -1503 3708 -753 1005 -1730 1811 -2866 2363 -560 272 -1128 472 -1731
608 -160 36 -499 101 -528 101 -8 0 -10 -57 -6 -202z"/>
<path d="M6960 15153 c-777 -36 -1591 -211 -2325 -498 -923 -361 -1753 -899
-2454 -1589 -441 -435 -780 -858 -1088 -1356 -600 -970 -949 -2020 -1060
-3190 -22 -232 -25 -945 -5 -1170 103 -1171 429 -2187 1016 -3170 1109 -1857
3041 -3139 5206 -3454 417 -61 735 -80 1195 -73 650 11 1176 84 1790 247 173
46 654 201 685 220 10 6 10 15 -2 47 -8 21 -41 105 -73 186 -47 122 -60 147
-74 141 -79 -32 -384 -133 -541 -178 -486 -139 -979 -224 -1494 -257 -230 -15
-835 -6 -1046 15 -839 85 -1577 285 -2313 627 -1266 587 -2363 1594 -3056
2804 -760 1325 -1051 2823 -845 4345 105 779 361 1572 727 2255 1431 2672
4472 4119 7427 3535 468 -92 919 -229 1353 -410 82 -34 149 -60 151 -58 9 12
156 347 156 356 0 5 -6 12 -12 15 -398 163 -540 215 -790 292 -573 175 -1149
278 -1763 315 -154 9 -601 11 -765 3z"/>
<path d="M11861 12509 l-135 -139 120 -122 c501 -514 871 -1034 1170 -1641
384 -780 590 -1605 623 -2484 76 -2047 -844 -3996 -2461 -5214 -994 -748
-2179 -1192 -3418 -1279 -184 -13 -643 -13 -825 0 -683 48 -1318 194 -1955
450 -179 71 -584 267 -745 360 -878 504 -1594 1164 -2138 1973 -637 946 -991
2033 -1043 3205 l-7 152 -91 0 c-50 0 -141 -3 -203 -7 l-112 -6 5 -101 c28
-572 82 -951 205 -1439 200 -789 559 -1556 1039 -2217 340 -469 780 -931 1234
-1294 702 -563 1506 -981 2356 -1226 1321 -381 2681 -354 3980 80 1253 417
2331 1162 3134 2164 813 1014 1303 2238 1433 3581 22 227 25 896 5 1110 -44
478 -119 886 -237 1295 -273 943 -730 1777 -1382 2523 -137 156 -393 417 -407
416 -6 -1 -71 -64 -145 -140z"/>
</g>
</svg>
